<svg width="204" height="35" viewBox="0 0 204 35" fill="none" xmlns="http://www.w3.org/2000/svg">
<path d="M56.9999 13.44C56.9839 13.888 57.2399 14.272 57.7679 14.592C58.2959 14.912 59.0399 15.232 59.9999 15.552L61.1759 15.96C61.8799 16.216 62.5119 16.536 63.0719 16.92C63.6479 17.304 64.1359 17.76 64.5359 18.288C64.9359 18.8 65.2319 19.384 65.4239 20.04C65.6159 20.68 65.6879 21.384 65.6399 22.152C65.5279 23.864 64.8319 25.192 63.5519 26.136C62.2879 27.08 60.5599 27.552 58.3679 27.552C57.2959 27.552 56.2639 27.432 55.2719 27.192C54.2799 26.968 53.4559 26.6 52.7999 26.088C52.5759 25.896 52.3839 25.68 52.2239 25.44C52.0639 25.184 51.9439 24.92 51.8639 24.648C51.7999 24.376 51.7919 24.096 51.8399 23.808C51.8879 23.504 51.9999 23.216 52.1759 22.944C52.3519 22.672 52.5999 22.464 52.9199 22.32C53.2399 22.176 53.5599 22.096 53.8799 22.08C54.2959 22.064 54.6239 22.128 54.8639 22.272C55.1199 22.416 55.3599 22.552 55.5839 22.68C55.8559 22.856 56.2079 23.008 56.6399 23.136C57.0719 23.248 57.6959 23.304 58.5119 23.304C59.1839 23.304 59.7039 23.184 60.0719 22.944C60.4399 22.704 60.6319 22.32 60.6479 21.792C60.6479 21.568 60.5599 21.352 60.3839 21.144C60.2079 20.936 59.9519 20.744 59.6159 20.568C59.2959 20.392 58.9199 20.224 58.4879 20.064C58.0559 19.888 57.5919 19.72 57.0959 19.56C56.9039 19.496 56.6959 19.424 56.4719 19.344C56.2639 19.264 56.0879 19.192 55.9439 19.128C55.0319 18.744 54.2959 18.272 53.7359 17.712C53.1759 17.136 52.7519 16.52 52.4639 15.864C52.1919 15.192 52.0479 14.504 52.0319 13.8C52.0319 13.096 52.1359 12.432 52.3439 11.808C52.7599 10.512 53.5279 9.51201 54.6479 8.80801C55.7839 8.10401 57.1759 7.75201 58.8239 7.75201C59.4479 7.75201 59.9919 7.78401 60.4559 7.84801C60.9359 7.89601 61.3519 7.96801 61.7039 8.06401C62.0719 8.14401 62.3839 8.24801 62.6399 8.37601C62.9119 8.48801 63.1599 8.60001 63.3839 8.71201C63.9439 9.01601 64.3759 9.44001 64.6799 9.98401C64.9999 10.528 65.0719 11.088 64.8959 11.664C64.7359 12.16 64.4639 12.512 64.0799 12.72C63.7119 12.928 63.2959 13.032 62.8319 13.032C62.6559 13.032 62.4559 13 62.2319 12.936C62.0079 12.872 61.8399 12.8 61.7279 12.72C61.4399 12.528 61.0719 12.36 60.6239 12.216C60.1759 12.072 59.5919 12 58.8719 12C58.2959 12 57.8399 12.12 57.5039 12.36C57.1839 12.584 57.0159 12.944 56.9999 13.44Z" fill="white"/>
<path d="M67.3874 31.368V14.544C67.3874 14.144 67.4514 13.8 67.5794 13.512C67.7234 13.208 67.9074 12.96 68.1314 12.768C68.3554 12.56 68.6114 12.408 68.8994 12.312C69.1874 12.2 69.4914 12.144 69.8114 12.144C70.2754 12.144 70.7074 12.256 71.1074 12.48C71.5234 12.704 71.8354 13.032 72.0434 13.464C72.5074 13.032 73.0434 12.704 73.6514 12.48C74.2754 12.256 74.8914 12.144 75.4994 12.144C76.2834 12.144 77.0274 12.256 77.7314 12.48C78.4514 12.688 79.0754 13.048 79.6034 13.56C80.1474 14.072 80.5714 14.752 80.8754 15.6C81.1954 16.448 81.3554 17.504 81.3554 18.768V20.928C81.3554 22.192 81.1954 23.248 80.8754 24.096C80.5714 24.944 80.1474 25.624 79.6034 26.136C79.0754 26.648 78.4514 27.008 77.7314 27.216C77.0274 27.44 76.2834 27.552 75.4994 27.552C74.8914 27.552 74.3154 27.464 73.7714 27.288C73.2274 27.128 72.7234 26.888 72.2594 26.568V31.368H67.3874ZM76.4114 18.432C76.4114 18.032 76.3394 17.696 76.1954 17.424C76.0674 17.136 75.8994 16.904 75.6914 16.728C75.4834 16.552 75.2594 16.432 75.0194 16.368C74.7794 16.288 74.5554 16.248 74.3474 16.248C74.1394 16.248 73.9074 16.288 73.6514 16.368C73.4114 16.432 73.1874 16.552 72.9794 16.728C72.7714 16.904 72.5954 17.136 72.4514 17.424C72.3234 17.696 72.2594 18.032 72.2594 18.432V21.384C72.2754 21.768 72.3554 22.096 72.4994 22.368C72.6434 22.624 72.8114 22.832 73.0034 22.992C73.2114 23.152 73.4354 23.272 73.6754 23.352C73.9154 23.416 74.1394 23.448 74.3474 23.448C74.5554 23.448 74.7794 23.416 75.0194 23.352C75.2594 23.272 75.4834 23.144 75.6914 22.968C75.8994 22.792 76.0674 22.568 76.1954 22.296C76.3394 22.024 76.4114 21.68 76.4114 21.264V18.432Z" fill="white"/>
<path d="M83.6553 9.26401C83.6553 8.43201 83.8953 7.82401 84.3753 7.44001C84.8713 7.05601 85.4553 6.86401 86.1273 6.86401C86.7993 6.86401 87.3753 7.05601 87.8553 7.44001C88.3513 7.82401 88.5993 8.43201 88.5993 9.26401V27.144H83.6553V9.26401Z" fill="white"/>
<path d="M100.13 27.144L99.9382 26.136C99.4742 26.568 98.9302 26.912 98.3062 27.168C97.6822 27.424 97.0102 27.552 96.2902 27.552H95.7622C95.2662 27.552 94.7302 27.472 94.1542 27.312C93.5782 27.168 93.0422 26.912 92.5462 26.544C92.0662 26.176 91.6582 25.68 91.3222 25.056C91.0022 24.432 90.8422 23.648 90.8422 22.704C90.8422 21.792 91.0022 21.032 91.3222 20.424C91.6422 19.816 92.0662 19.328 92.5942 18.96C93.1382 18.592 93.7622 18.328 94.4662 18.168C95.1862 18.008 95.9382 17.928 96.7222 17.928H99.1942C99.1782 17.576 99.1062 17.288 98.9782 17.064C98.8662 16.824 98.7062 16.64 98.4982 16.512C98.3062 16.368 98.0742 16.272 97.8022 16.224C97.5462 16.16 97.2742 16.128 96.9862 16.128C96.7142 16.128 96.4502 16.152 96.1942 16.2C95.9382 16.248 95.6662 16.312 95.3782 16.392C95.1862 16.456 95.0022 16.528 94.8262 16.608C94.6662 16.688 94.4742 16.776 94.2502 16.872C94.0262 16.984 93.7862 17.048 93.5302 17.064C93.2902 17.064 93.0502 17.032 92.8102 16.968C92.5702 16.888 92.3462 16.768 92.1382 16.608C91.9462 16.448 91.7942 16.248 91.6822 16.008C91.4582 15.528 91.4262 15.064 91.5862 14.616C91.7462 14.152 92.0342 13.76 92.4502 13.44C92.7702 13.2 93.1302 13 93.5302 12.84C93.9302 12.68 94.3462 12.552 94.7782 12.456C95.2102 12.344 95.6422 12.264 96.0742 12.216C96.5222 12.168 96.9542 12.144 97.3702 12.144C98.2342 12.144 99.0582 12.24 99.8422 12.432C100.642 12.608 101.338 12.936 101.93 13.416C102.538 13.88 103.018 14.528 103.37 15.36C103.738 16.192 103.922 17.256 103.922 18.552V27.144H100.13ZM99.1942 21.456H97.0102C96.5462 21.456 96.1942 21.568 95.9542 21.792C95.7142 22 95.5942 22.296 95.5942 22.68C95.5942 23.08 95.7142 23.376 95.9542 23.568C96.1942 23.76 96.5222 23.856 96.9382 23.856H97.2742C97.4982 23.856 97.7222 23.824 97.9462 23.76C98.1702 23.696 98.3702 23.6 98.5462 23.472C98.7382 23.344 98.8902 23.184 99.0022 22.992C99.1302 22.8 99.1942 22.576 99.1942 22.32V21.456Z" fill="white"/>
<path d="M110.855 16.728C110.823 17.016 110.991 17.232 111.359 17.376C111.743 17.52 112.383 17.672 113.279 17.832C113.439 17.864 113.591 17.896 113.735 17.928C113.895 17.96 114.047 17.992 114.191 18.024C115.631 18.392 116.687 19.024 117.359 19.92C118.031 20.8 118.279 21.968 118.103 23.424C118.007 24.128 117.775 24.744 117.407 25.272C117.055 25.784 116.591 26.208 116.015 26.544C115.439 26.88 114.775 27.128 114.023 27.288C113.287 27.464 112.503 27.552 111.671 27.552C111.255 27.552 110.823 27.528 110.375 27.48C109.943 27.448 109.511 27.384 109.079 27.288C108.647 27.192 108.231 27.064 107.831 26.904C107.431 26.728 107.079 26.512 106.775 26.256C106.359 25.904 106.071 25.472 105.911 24.96C105.767 24.432 105.863 23.912 106.199 23.4C106.375 23.144 106.591 22.96 106.847 22.848C107.119 22.736 107.415 22.672 107.735 22.656C108.119 22.64 108.423 22.696 108.647 22.824C108.871 22.952 109.087 23.08 109.295 23.208C109.551 23.368 109.919 23.496 110.399 23.592C110.879 23.688 111.351 23.736 111.815 23.736C112.279 23.736 112.631 23.656 112.871 23.496C113.127 23.336 113.271 23.144 113.303 22.92C113.335 22.632 113.087 22.408 112.559 22.248C112.047 22.072 111.327 21.888 110.399 21.696C110.223 21.664 110.047 21.632 109.871 21.6C109.711 21.552 109.559 21.504 109.415 21.456C108.471 21.168 107.735 20.784 107.207 20.304C106.679 19.808 106.311 19.264 106.103 18.672C105.895 18.08 105.823 17.464 105.887 16.824C105.951 16.184 106.111 15.584 106.367 15.024C106.607 14.528 106.919 14.096 107.303 13.728C107.703 13.36 108.151 13.064 108.647 12.84C109.159 12.6 109.703 12.424 110.279 12.312C110.855 12.2 111.447 12.144 112.055 12.144C113.015 12.144 113.839 12.232 114.527 12.408C115.215 12.584 115.767 12.792 116.183 13.032C116.679 13.304 117.071 13.68 117.359 14.16C117.647 14.624 117.711 15.128 117.551 15.672C117.407 16.136 117.167 16.456 116.831 16.632C116.495 16.808 116.111 16.896 115.679 16.896C115.519 16.896 115.335 16.872 115.127 16.824C114.935 16.76 114.783 16.688 114.671 16.608C114.527 16.512 114.351 16.432 114.143 16.368C113.935 16.288 113.711 16.216 113.471 16.152C113.247 16.088 113.015 16.04 112.775 16.008C112.535 15.976 112.319 15.96 112.127 15.96C111.743 15.96 111.439 16.04 111.215 16.2C110.991 16.344 110.871 16.52 110.855 16.728Z" fill="white"/>
<path d="M128.792 27.144V18.456C128.792 18.056 128.728 17.72 128.6 17.448C128.472 17.16 128.312 16.928 128.12 16.752C127.928 16.576 127.712 16.456 127.472 16.392C127.248 16.312 127.032 16.272 126.824 16.272C126.616 16.272 126.392 16.312 126.152 16.392C125.928 16.456 125.72 16.568 125.528 16.728C125.336 16.888 125.176 17.104 125.048 17.376C124.92 17.632 124.848 17.952 124.832 18.336V27.144H119.96V9.26401C119.96 8.86401 120.024 8.52001 120.152 8.23201C120.296 7.92801 120.48 7.68001 120.704 7.48801C120.928 7.28001 121.184 7.12801 121.472 7.03201C121.776 6.92001 122.088 6.86401 122.408 6.86401C122.728 6.86401 123.032 6.92001 123.32 7.03201C123.608 7.12801 123.864 7.28001 124.088 7.48801C124.312 7.68001 124.488 7.92801 124.616 8.23201C124.76 8.52001 124.832 8.86401 124.832 9.26401V13.296C125.248 12.928 125.72 12.648 126.248 12.456C126.792 12.248 127.384 12.144 128.024 12.144C128.808 12.144 129.544 12.256 130.232 12.48C130.936 12.688 131.544 13.048 132.056 13.56C132.568 14.072 132.976 14.752 133.28 15.6C133.584 16.448 133.736 17.504 133.736 18.768V27.144H128.792Z" fill="white"/>
<path d="M150.202 7.82401C151.242 7.82401 152.266 7.97601 153.274 8.28001C154.298 8.56801 155.21 9.06401 156.01 9.76801C156.826 10.456 157.482 11.368 157.978 12.504C158.474 13.64 158.722 15.04 158.722 16.704V18.264C158.722 19.928 158.474 21.328 157.978 22.464C157.482 23.6 156.826 24.52 156.01 25.224C155.21 25.912 154.298 26.408 153.274 26.712C152.266 27 151.242 27.144 150.202 27.144H146.626C145.906 27.144 145.306 27.08 144.826 26.952C144.346 26.808 143.962 26.584 143.674 26.28C143.386 25.976 143.178 25.584 143.05 25.104C142.938 24.624 142.882 24.04 142.882 23.352V11.616C142.882 10.928 142.938 10.344 143.05 9.86401C143.178 9.38401 143.386 8.99201 143.674 8.68801C143.962 8.38401 144.346 8.16801 144.826 8.04001C145.306 7.89601 145.906 7.82401 146.626 7.82401H150.202ZM153.826 16.32C153.826 14.912 153.482 13.84 152.794 13.104C152.106 12.352 151.194 11.976 150.058 11.976H148.474C148.202 11.976 148.018 12.024 147.922 12.12C147.826 12.2 147.778 12.384 147.778 12.672V22.296C147.778 22.584 147.826 22.776 147.922 22.872C148.018 22.952 148.202 22.992 148.474 22.992H150.058C151.194 22.992 152.106 22.624 152.794 21.888C153.482 21.136 153.826 20.056 153.826 18.648V16.32Z" fill="white"/>
<path d="M169.88 27.144L169.688 26.136C169.224 26.568 168.68 26.912 168.056 27.168C167.432 27.424 166.76 27.552 166.04 27.552H165.512C165.016 27.552 164.48 27.472 163.904 27.312C163.328 27.168 162.792 26.912 162.296 26.544C161.816 26.176 161.408 25.68 161.072 25.056C160.752 24.432 160.592 23.648 160.592 22.704C160.592 21.792 160.752 21.032 161.072 20.424C161.392 19.816 161.816 19.328 162.344 18.96C162.888 18.592 163.512 18.328 164.216 18.168C164.936 18.008 165.688 17.928 166.472 17.928H168.944C168.928 17.576 168.856 17.288 168.728 17.064C168.616 16.824 168.456 16.64 168.248 16.512C168.056 16.368 167.824 16.272 167.552 16.224C167.296 16.16 167.024 16.128 166.736 16.128C166.464 16.128 166.2 16.152 165.944 16.2C165.688 16.248 165.416 16.312 165.128 16.392C164.936 16.456 164.752 16.528 164.576 16.608C164.416 16.688 164.224 16.776 164 16.872C163.776 16.984 163.536 17.048 163.28 17.064C163.04 17.064 162.8 17.032 162.56 16.968C162.32 16.888 162.096 16.768 161.888 16.608C161.696 16.448 161.544 16.248 161.432 16.008C161.208 15.528 161.176 15.064 161.336 14.616C161.496 14.152 161.784 13.76 162.2 13.44C162.52 13.2 162.88 13 163.28 12.84C163.68 12.68 164.096 12.552 164.528 12.456C164.96 12.344 165.392 12.264 165.824 12.216C166.272 12.168 166.704 12.144 167.12 12.144C167.984 12.144 168.808 12.24 169.592 12.432C170.392 12.608 171.088 12.936 171.68 13.416C172.288 13.88 172.768 14.528 173.12 15.36C173.488 16.192 173.672 17.256 173.672 18.552V27.144H169.88ZM168.944 21.456H166.76C166.296 21.456 165.944 21.568 165.704 21.792C165.464 22 165.344 22.296 165.344 22.68C165.344 23.08 165.464 23.376 165.704 23.568C165.944 23.76 166.272 23.856 166.688 23.856H167.024C167.248 23.856 167.472 23.824 167.696 23.76C167.92 23.696 168.12 23.6 168.296 23.472C168.488 23.344 168.64 23.184 168.752 22.992C168.88 22.8 168.944 22.576 168.944 22.32V21.456Z" fill="white"/>
<path d="M180.605 16.728C180.573 17.016 180.741 17.232 181.109 17.376C181.493 17.52 182.133 17.672 183.029 17.832C183.189 17.864 183.341 17.896 183.485 17.928C183.645 17.96 183.797 17.992 183.941 18.024C185.381 18.392 186.437 19.024 187.109 19.92C187.781 20.8 188.029 21.968 187.853 23.424C187.757 24.128 187.525 24.744 187.157 25.272C186.805 25.784 186.341 26.208 185.765 26.544C185.189 26.88 184.525 27.128 183.773 27.288C183.037 27.464 182.253 27.552 181.421 27.552C181.005 27.552 180.573 27.528 180.125 27.48C179.693 27.448 179.261 27.384 178.829 27.288C178.397 27.192 177.981 27.064 177.581 26.904C177.181 26.728 176.829 26.512 176.525 26.256C176.109 25.904 175.821 25.472 175.661 24.96C175.517 24.432 175.613 23.912 175.949 23.4C176.125 23.144 176.341 22.96 176.597 22.848C176.869 22.736 177.165 22.672 177.485 22.656C177.869 22.64 178.173 22.696 178.397 22.824C178.621 22.952 178.837 23.08 179.045 23.208C179.301 23.368 179.669 23.496 180.149 23.592C180.629 23.688 181.101 23.736 181.565 23.736C182.029 23.736 182.381 23.656 182.621 23.496C182.877 23.336 183.021 23.144 183.053 22.92C183.085 22.632 182.837 22.408 182.309 22.248C181.797 22.072 181.077 21.888 180.149 21.696C179.973 21.664 179.797 21.632 179.621 21.6C179.461 21.552 179.309 21.504 179.165 21.456C178.221 21.168 177.485 20.784 176.957 20.304C176.429 19.808 176.061 19.264 175.853 18.672C175.645 18.08 175.573 17.464 175.637 16.824C175.701 16.184 175.861 15.584 176.117 15.024C176.357 14.528 176.669 14.096 177.053 13.728C177.453 13.36 177.901 13.064 178.397 12.84C178.909 12.6 179.453 12.424 180.029 12.312C180.605 12.2 181.197 12.144 181.805 12.144C182.765 12.144 183.589 12.232 184.277 12.408C184.965 12.584 185.517 12.792 185.933 13.032C186.429 13.304 186.821 13.68 187.109 14.16C187.397 14.624 187.461 15.128 187.301 15.672C187.157 16.136 186.917 16.456 186.581 16.632C186.245 16.808 185.861 16.896 185.429 16.896C185.269 16.896 185.085 16.872 184.877 16.824C184.685 16.76 184.533 16.688 184.421 16.608C184.277 16.512 184.101 16.432 183.893 16.368C183.685 16.288 183.461 16.216 183.221 16.152C182.997 16.088 182.765 16.04 182.525 16.008C182.285 15.976 182.069 15.96 181.877 15.96C181.493 15.96 181.189 16.04 180.965 16.2C180.741 16.344 180.621 16.52 180.605 16.728Z" fill="white"/>
<path d="M198.542 27.144V18.456C198.542 18.056 198.478 17.72 198.35 17.448C198.222 17.16 198.062 16.928 197.87 16.752C197.678 16.576 197.462 16.456 197.222 16.392C196.998 16.312 196.782 16.272 196.574 16.272C196.366 16.272 196.142 16.312 195.902 16.392C195.678 16.456 195.47 16.568 195.278 16.728C195.086 16.888 194.926 17.104 194.798 17.376C194.67 17.632 194.598 17.952 194.582 18.336V27.144H189.71V9.26401C189.71 8.86401 189.774 8.52001 189.902 8.23201C190.046 7.92801 190.23 7.68001 190.454 7.48801C190.678 7.28001 190.934 7.12801 191.222 7.03201C191.526 6.92001 191.838 6.86401 192.158 6.86401C192.478 6.86401 192.782 6.92001 193.07 7.03201C193.358 7.12801 193.614 7.28001 193.838 7.48801C194.062 7.68001 194.238 7.92801 194.366 8.23201C194.51 8.52001 194.582 8.86401 194.582 9.26401V13.296C194.998 12.928 195.47 12.648 195.998 12.456C196.542 12.248 197.134 12.144 197.774 12.144C198.558 12.144 199.294 12.256 199.982 12.48C200.686 12.688 201.294 13.048 201.806 13.56C202.318 14.072 202.726 14.752 203.03 15.6C203.334 16.448 203.486 17.504 203.486 18.768V27.144H198.542Z" fill="white"/>
<path fill-rule="evenodd" clip-rule="evenodd" d="M9.35756 27.4277C12.1383 27.786 18.233 27.3416 20.3659 22.6975C22.2549 18.367 22.8998 18.2554 24.101 18.4086C25.6326 18.6039 27.0185 21.2016 27.2676 21.8065C27.2817 21.5255 27.3002 21.2195 27.3198 20.895C27.421 19.2174 27.5522 17.0451 27.2676 15.2745C27.2201 14.9791 27.1297 14.6333 27.0355 14.2725C26.7025 12.9981 26.3208 11.537 27.6072 11.451C28.1331 11.4159 28.5212 11.7437 28.943 12.0999C29.5045 12.5741 30.1256 13.0986 31.2104 12.8833C32.7869 12.5705 31.0248 7.51926 30.3154 5.48542C30.1699 5.06847 30.0687 4.77833 30.0496 4.68184C30.0434 4.65082 30.0286 4.59311 30.0082 4.51331C29.7941 3.67684 28.9586 0.413905 30.924 0.0382759C32.8068 -0.321575 35.0097 1.89262 36.8791 5.13402C38.1967 7.41854 39.2049 11.1305 39.1801 14.6043H39.1804C39.1804 19.3219 37.5375 23.8923 34.534 27.5303C31.5305 31.1683 27.3539 33.6468 22.7216 34.5401C18.0893 35.4334 13.2905 34.6856 9.14962 32.4253C5.43075 30.3954 2.45099 27.2593 0.611566 23.4689C0.382646 23.0314 0.182898 22.586 0.019165 22.1346C1.01925 23.6088 4.28706 26.7312 9.35756 27.4277Z" fill="url(#paint0_linear_104_4242)"/>
<path d="M6.054 24.5705C2.09329 22.8102 0.740902 20.0161 0.241409 18.831C-0.48868 17.0989 0.491613 15.2368 2.44834 16.5621C4.04751 17.6452 4.66687 19.066 6.74269 22.05C8.40335 24.4372 11.3009 25.6914 12.542 26.02C10.9722 25.9162 8.61093 25.6957 6.054 24.5705Z" fill="url(#paint1_linear_104_4242)"/>
<path d="M6.88071 17.6846C5.05279 14.9072 5.33726 12.5428 5.50573 11.5708C5.75199 10.1499 7.15639 9.35383 7.87067 11.0202C8.45444 12.382 8.26565 13.556 8.3696 16.3426C8.45277 18.572 9.80393 20.5822 10.4691 21.3086C9.49855 20.5912 8.0654 19.4705 6.88071 17.6846Z" fill="url(#paint2_linear_104_4242)"/>
<defs>
<linearGradient id="paint0_linear_104_4242" x1="22.833" y1="-2.93524" x2="10.6438" y2="33.6819" gradientUnits="userSpaceOnUse">
<stop offset="0.0001" stop-color="#83E1FF"/>
<stop offset="1" stop-color="#0071D8"/>
</linearGradient>
<linearGradient id="paint1_linear_104_4242" x1="7.30649" y1="15.2797" x2="4.17362" y2="25.8996" gradientUnits="userSpaceOnUse">
<stop stop-color="#83C4FF"/>
<stop offset="0.0001" stop-color="#83E1FF"/>
<stop offset="1" stop-color="#0071D8"/>
</linearGradient>
<linearGradient id="paint2_linear_104_4242" x1="11.5386" y1="12.205" x2="5.11598" y2="17.7637" gradientUnits="userSpaceOnUse">
<stop stop-color="#83C4FF"/>
<stop offset="0.0001" stop-color="#83E1FF"/>
<stop offset="1" stop-color="#0071D8"/>
</linearGradient>
</defs>
</svg>
