<svg width="64" height="64" viewBox="0 0 64 64" fill="none" xmlns="http://www.w3.org/2000/svg">
<path d="M0 16C0 7.16344 7.16344 0 16 0H48C56.8366 0 64 7.16344 64 16V48C64 56.8366 56.8366 64 48 64H16C7.16344 64 0 56.8366 0 48V16Z" fill="white"/>
<path d="M25.3737 43.2539L17.6317 29.8443C17.4387 29.51 17.337 29.1308 17.337 28.7448C17.337 28.3588 17.4387 27.9796 17.6317 27.6453L25.3737 14.2422C25.5668 13.9079 25.8444 13.6303 26.1787 13.4374C26.513 13.2444 26.8922 13.1427 27.2782 13.1428H42.7559C43.1419 13.1427 43.5211 13.2444 43.8554 13.4374C44.1897 13.6303 44.4673 13.9079 44.6603 14.2422L52.4286 27.6584L48.6197 29.8574L41.5124 17.5537H28.5478L22.0753 28.7579L29.1826 41.068L25.3737 43.2539Z" fill="#9C6CFF" stroke="#9C6CFF" stroke-width="0.2"/>
<path d="M36.7218 50.5509H21.2114C20.8254 50.551 20.4462 50.4493 20.1119 50.2563C19.7776 50.0634 19.5 49.7857 19.307 49.4514L11.5714 36.0549L15.3737 33.856L22.481 46.1661H35.4129L41.8789 34.9555L34.7781 22.6519L38.5805 20.4529L46.3225 33.856C46.5155 34.1903 46.6172 34.5695 46.6172 34.9555C46.6172 35.3414 46.5155 35.7206 46.3225 36.0549L38.5805 49.4645C38.3907 49.7906 38.1199 50.062 37.7942 50.2524C37.4685 50.4428 37.099 50.5456 36.7218 50.5509Z" fill="#05D2DD" stroke="#05D2DD" stroke-width="0.2"/>
</svg>
