<svg width="150" height="150" viewBox="0 0 150 150" fill="none" xmlns="http://www.w3.org/2000/svg">
<path fill-rule="evenodd" clip-rule="evenodd" d="M119.957 129.35H119.897L119.86 129.35H26.8486C22.9826 129.35 19.8486 126.216 19.8486 122.35V89.6854V51.3446C19.8486 48.9587 21.0423 46.8516 22.865 45.5879C23.7222 44.8398 24.6908 44.2867 25.7227 43.9692L99.9251 20.9732C101.913 20.3546 104.023 20.631 105.857 21.7454C108.201 23.1737 109.87 25.7881 110.43 28.9331L113.188 44.3437H119.959C120.382 44.3437 120.796 44.3879 121.198 44.4723C124.424 45.0967 126.86 47.9362 126.86 51.3446V69.6808L90.6608 69.6798C87.347 69.6797 84.6606 72.366 84.6606 75.6798V100.108C84.6606 103.422 87.3469 106.108 90.6606 106.108H126.86V122.35C126.86 125.792 124.375 128.654 121.102 129.24C120.729 129.312 120.347 129.35 119.957 129.35ZM108.622 44.3446L85.6626 44.3446L39.743 44.3445L101.267 25.2771C102.023 25.0434 102.785 25.15 103.528 25.5979C104.747 26.3408 105.675 27.8836 106.005 29.7303L108.622 44.3446Z" fill="url(#paint0_linear_66_816)"/>
<path fill-rule="evenodd" clip-rule="evenodd" d="M95.4374 100.879C92.1237 100.879 89.4374 98.1928 89.4374 94.8791V80.9088C89.4374 77.595 92.1238 74.9087 95.4375 74.9088L124.152 74.9094C127.465 74.9095 130.152 77.5958 130.152 80.9094V94.8791C130.152 98.1928 127.465 100.879 124.152 100.879H95.4374ZM99.4899 91.6441C101.561 91.6441 103.24 89.9652 103.24 87.8941C103.24 85.823 101.561 84.1441 99.4899 84.1441C97.4188 84.1441 95.7399 85.823 95.7399 87.8941C95.7399 89.9652 97.4188 91.6441 99.4899 91.6441Z" fill="url(#paint1_linear_66_816)"/>
<defs>
<linearGradient id="paint0_linear_66_816" x1="73.5101" y1="20.6502" x2="73.5101" y2="140.417" gradientUnits="userSpaceOnUse">
<stop stop-color="#C8E5FF"/>
<stop offset="1" stop-color="#528DFF"/>
</linearGradient>
<linearGradient id="paint1_linear_66_816" x1="109.854" y1="74.9088" x2="109.854" y2="103.523" gradientUnits="userSpaceOnUse">
<stop stop-color="#C8E5FF"/>
<stop offset="1" stop-color="#528DFF"/>
</linearGradient>
</defs>
</svg>
