<svg width="42" height="42" viewBox="0 0 42 42" fill="none" xmlns="http://www.w3.org/2000/svg">
<rect width="42" height="42" rx="10" fill="#4C5671"/>
<path fill-rule="evenodd" clip-rule="evenodd" d="M20.0909 17.3636C20.0909 18.8699 18.8699 20.0909 17.3636 20.0909C15.8574 20.0909 14.6364 18.8699 14.6364 17.3636C14.6364 15.8574 15.8574 14.6364 17.3636 14.6364C18.8699 14.6364 20.0909 15.8574 20.0909 17.3636ZM17.3636 18.5758C18.0331 18.5758 18.5758 18.0331 18.5758 17.3636C18.5758 16.6942 18.0331 16.1515 17.3636 16.1515C16.6942 16.1515 16.1515 16.6942 16.1515 17.3636C16.1515 18.0331 16.6942 18.5758 17.3636 18.5758Z" fill="#A1ADD0"/>
<path fill-rule="evenodd" clip-rule="evenodd" d="M13.4242 11C12.0854 11 11 12.0854 11 13.4242V28.5758C11 29.9146 12.0854 31 13.4242 31H28.5758C29.9146 31 31 29.9146 31 28.5758V13.4242C31 12.0854 29.9146 11 28.5758 11H13.4242ZM28.5758 12.8182H13.4242C13.0895 12.8182 12.8182 13.0895 12.8182 13.4242V28.5758C12.8182 28.9105 13.0895 29.1818 13.4242 29.1818H13.5994L25.0748 18.2727L29.1818 22.8526V13.4242C29.1818 13.0895 28.9105 12.8182 28.5758 12.8182ZM29.1818 25.674L25.0748 21.094L16.5671 29.1818H28.5758C28.9105 29.1818 29.1818 28.9105 29.1818 28.5758V25.674Z" fill="#A1ADD0"/>
</svg>
