<svg width="32" height="32" viewBox="0 0 32 32" fill="none" xmlns="http://www.w3.org/2000/svg">
<g clip-path="url(#clip0_204_239)">
<path d="M12.4131 8.94668C12.1648 9.1965 12.0254 9.53444 12.0254 9.88668C12.0254 10.2389 12.1648 10.5769 12.4131 10.8267L17.5864 16L12.4131 21.1734C12.1947 21.4284 12.0805 21.7565 12.0935 22.0921C12.1065 22.4277 12.2456 22.746 12.483 22.9834C12.7205 23.2209 13.0388 23.36 13.3744 23.373C13.7099 23.3859 14.038 23.2718 14.2931 23.0534L20.4131 16.9334C20.6615 16.6835 20.8008 16.3456 20.8008 15.9934C20.8008 15.6411 20.6615 15.3032 20.4131 15.0534L14.2931 8.93335C14.0415 8.68678 13.7026 8.54978 13.3504 8.55228C12.9981 8.55478 12.6612 8.69657 12.4131 8.94668Z" fill="#A7B7E9"/>
</g>
<defs>
<clipPath id="clip0_204_239">
<rect width="32" height="32" fill="white"/>
</clipPath>
</defs>
</svg>
