<svg width="33" height="32" viewBox="0 0 33 32" fill="none" xmlns="http://www.w3.org/2000/svg">
<g clip-path="url(#clip0_66_887)">
<path d="M23.2574 12.4133C23.0076 12.165 22.6697 12.0256 22.3174 12.0256C21.9652 12.0256 21.6272 12.165 21.3774 12.4133L16.2041 17.5867L11.0308 12.4133C10.7757 12.1949 10.4476 12.0808 10.112 12.0937C9.77645 12.1067 9.45813 12.2458 9.22067 12.4832C8.98321 12.7207 8.8441 13.039 8.83114 13.3746C8.81818 13.7102 8.93231 14.0383 9.15075 14.2933L15.2708 20.4133C15.5206 20.6617 15.8585 20.8011 16.2108 20.8011C16.563 20.8011 16.9009 20.6617 17.1508 20.4133L23.2708 14.2933C23.5173 14.0418 23.6543 13.7028 23.6518 13.3506C23.6493 12.9983 23.5075 12.6614 23.2574 12.4133Z" fill="white"/>
</g>
<defs>
<clipPath id="clip0_66_887">
<rect width="32" height="32" fill="white" transform="translate(32.2041) rotate(90)"/>
</clipPath>
</defs>
</svg>
