<svg width="32" height="32" viewBox="0 0 32 32" fill="none" xmlns="http://www.w3.org/2000/svg">
<circle cx="16" cy="16" r="14.5" fill="#031F54" stroke="#4C5671"/>
<path d="M17.9816 22.1293C18.1985 21.9111 18.3203 21.6159 18.3203 21.3082C18.3203 21.0005 18.1985 20.7052 17.9816 20.487L13.4624 15.9678L17.9816 11.4486C18.1724 11.2257 18.2721 10.9391 18.2608 10.646C18.2495 10.3528 18.128 10.0748 17.9205 9.86733C17.7131 9.6599 17.435 9.53838 17.1419 9.52706C16.8488 9.51573 16.5621 9.61544 16.3393 9.80626L10.9931 15.1525C10.7762 15.3707 10.6544 15.6659 10.6544 15.9736C10.6544 16.2813 10.7762 16.5765 10.9931 16.7948L16.3393 22.141C16.5591 22.3564 16.8552 22.476 17.1629 22.4738C17.4706 22.4717 17.7649 22.3478 17.9816 22.1293Z" fill="white"/>
</svg>
