<svg width="33" height="32" viewBox="0 0 33 32" fill="none" xmlns="http://www.w3.org/2000/svg">
<path d="M24.9313 22.7879L26.8707 22.7879L26.8707 7.27271C26.8707 6.20605 25.998 5.33332 24.9313 5.33332L9.41618 5.33332L9.41618 7.27272L24.9313 7.27271L24.9313 22.7879ZM7.47679 26.6667L21.0525 26.6667C22.1192 26.6667 22.9919 25.7939 22.9919 24.7273L22.9919 11.1515C22.9919 10.0848 22.1192 9.21211 21.0525 9.21211L7.47679 9.21211C6.41012 9.21211 5.53739 10.0848 5.53739 11.1515L5.5374 24.7273C5.5374 25.7939 6.41012 26.6667 7.47679 26.6667ZM7.47679 11.1515L21.0525 11.1515L21.0525 24.7273L7.47679 24.7273L7.47679 11.1515Z" fill="white"/>
</svg>
