<svg width="32" height="32" viewBox="0 0 32 32" fill="none" xmlns="http://www.w3.org/2000/svg">
<circle cx="16" cy="16" r="16" fill="url(#paint0_linear_66_1054)"/>
<path fill-rule="evenodd" clip-rule="evenodd" d="M10.2394 21.7631C10.8151 22.7524 11.6519 23.5757 12.6642 24.1486C13.6764 24.7215 14.8277 25.0234 16 25.0234C17.1723 25.0234 18.3236 24.7215 19.3358 24.1486C20.3481 23.5757 21.1849 22.7524 21.7606 21.7631C22.3513 20.7719 22.6624 19.6475 22.6624 18.5029C22.6624 17.3584 22.3513 16.234 21.7606 15.2428L16.694 6.64048C16.6247 6.52129 16.5239 6.42211 16.4019 6.3531C16.2799 6.28408 16.1412 6.24771 16 6.24771C15.8588 6.24771 15.7201 6.28408 15.5981 6.3531C15.4762 6.42211 15.3753 6.52129 15.306 6.64048L10.2394 15.2428C9.64867 16.234 9.33765 17.3584 9.33765 18.5029C9.33765 19.6475 9.64867 20.7719 10.2394 21.7631ZM14.5728 10.733L15.653 8.89883C15.6877 8.83923 15.7381 8.78964 15.7991 8.75513C15.86 8.72063 15.9294 8.70244 16 8.70244C16.0706 8.70244 16.14 8.72063 16.2009 8.75513C16.2619 8.78964 16.3123 8.83923 16.347 8.89883L20.5028 15.9547C20.8758 16.5804 21.1071 17.2757 21.1812 17.9947C21.2554 18.7136 21.1706 19.4395 20.9327 20.1243C20.881 19.8909 20.8099 19.6619 20.7201 19.4396C20.1461 18.0195 18.8481 16.9237 16.8616 16.1824C15.4958 15.6745 14.624 14.9276 14.2698 13.9621C13.8135 12.7182 14.2901 11.3614 14.5728 10.733ZM12.7308 13.8605L11.4972 15.9547C11.0354 16.7295 10.7923 17.6084 10.7923 18.5031C10.7923 19.3978 11.0354 20.2767 11.4972 21.0515C11.8706 21.6922 12.3849 22.2454 13.0037 22.6718C13.6226 23.0983 14.3307 23.3875 15.0779 23.519C15.8251 23.6505 16.593 23.621 17.3271 23.4327C18.0613 23.2443 18.7436 22.9017 19.3256 22.4292C19.6473 21.6325 19.6588 20.7497 19.358 19.9455C18.9364 18.9195 17.9215 18.1004 16.3416 17.5105C14.5558 16.8464 13.3957 15.8097 12.8939 14.4301C12.8263 14.244 12.7718 14.0537 12.7308 13.8605Z" fill="white"/>
<defs>
<linearGradient id="paint0_linear_66_1054" x1="16" y1="0" x2="16" y2="32" gradientUnits="userSpaceOnUse">
<stop stop-color="#B4E1FF"/>
<stop offset="1" stop-color="#6FBCF0"/>
</linearGradient>
</defs>
</svg>
