<svg width="24" height="24" viewBox="0 0 24 24" fill="none" xmlns="http://www.w3.org/2000/svg">
<circle cx="12" cy="12" r="12" fill="#CD1A1A"/>
<path fill-rule="evenodd" clip-rule="evenodd" d="M6.96967 6.96967C7.26256 6.67678 7.73744 6.67678 8.03033 6.96967L17.0303 15.9697C17.3232 16.2626 17.3232 16.7374 17.0303 17.0303C16.7374 17.3232 16.2626 17.3232 15.9697 17.0303L6.96967 8.03033C6.67678 7.73744 6.67678 7.26256 6.96967 6.96967Z" fill="white"/>
<path fill-rule="evenodd" clip-rule="evenodd" d="M17.0303 6.96967C17.3232 7.26256 17.3232 7.73744 17.0303 8.03033L8.03033 17.0303C7.73744 17.3232 7.26256 17.3232 6.96967 17.0303C6.67678 16.7374 6.67678 16.2626 6.96967 15.9697L15.9697 6.96967C16.2626 6.67678 16.7374 6.67678 17.0303 6.96967Z" fill="white"/>
</svg>
