<svg width="24" height="24" viewBox="0 0 24 24" fill="none" xmlns="http://www.w3.org/2000/svg">
<path d="M24 12C24 18.6274 18.6274 24 12 24C5.37258 24 0 18.6274 0 12C0 5.37258 5.37258 0 12 0C18.6274 0 24 5.37258 24 12Z" fill="#037EED"/>
<path fill-rule="evenodd" clip-rule="evenodd" d="M17.5313 8.34967C17.2067 8.02505 16.6804 8.02505 16.3558 8.34967L10.8186 13.8869L8.34384 11.4122C8.01921 11.0875 7.4929 11.0875 7.16827 11.4122C6.84365 11.7368 6.84365 12.2631 7.16827 12.5877L10.2308 15.6502C10.5554 15.9749 11.0817 15.9749 11.4063 15.6502L17.5313 9.52523C17.856 9.20061 17.856 8.67429 17.5313 8.34967Z" fill="white"/>
</svg>
